<svg xmlns="http://www.w3.org/2000/svg" xmlns:xlink="http://www.w3.org/1999/xlink" viewBox="0 0 500.68 119.89"><defs><style>.cls-1{fill:url(#green);}.cls-2{fill:url(#green-8);}.cls-3{fill:url(#green-9);}.cls-4{fill:url(#green-10);}.cls-5{fill:url(#green-11);}.cls-6{fill:url(#green-12);}.cls-7{fill:url(#green-13);}</style><linearGradient id="green" x1="320.28" y1="119.89" x2="320.28" y2="51.07" gradientUnits="userSpaceOnUse"><stop offset="0" stop-color="#065539"/><stop offset="0.49" stop-color="#348b6c"/><stop offset="0.67" stop-color="#319471"/><stop offset="1" stop-color="#29b986"/></linearGradient><linearGradient id="green-8" x1="57.77" y1="107.49" x2="57.77" y2="0" xlink:href="#green"/><linearGradient id="green-9" x1="57.78" y1="60.08" x2="57.78" y2="45.8" xlink:href="#green"/><linearGradient id="green-10" x1="78.29" y1="60.09" x2="78.29" y2="45.79" xlink:href="#green"/><linearGradient id="green-11" x1="67.76" y1="66.19" x2="67.76" y2="61.35" xlink:href="#green"/><linearGradient id="green-12" x1="22.57" y1="86.02" x2="22.57" y2="82.11" xlink:href="#green"/><linearGradient id="green-13" x1="19.17" y1="77.34" x2="19.17" y2="73.8" xlink:href="#green"/></defs><g id="Calque_2" data-name="Calque 2"><g id="Calque_1-2" data-name="Calque 1"><path d="M149.43,76.38h33.49V54.89h9.54v52.6h-9.54V86H149.43v21.5h-9.54V54.89h9.54Z"/><path d="M253,94.1a14.43,14.43,0,0,1-.63,4.42,12.54,12.54,0,0,1-1.65,3.45,11.27,11.27,0,0,1-2.38,2.53,14,14,0,0,1-2.85,1.71,14.66,14.66,0,0,1-3,1,14.14,14.14,0,0,1-2.88.31h-17.2a15.16,15.16,0,0,1-4.33-.7,12.6,12.6,0,0,1-7.68-6.43A13.26,13.26,0,0,1,209,94.1V81.19A13.15,13.15,0,0,1,210.34,75,12.57,12.57,0,0,1,218,68.53a15.48,15.48,0,0,1,4.33-.69h17.2a13.38,13.38,0,0,1,6.24,1.32,12.43,12.43,0,0,1,4.15,3.32,13.24,13.24,0,0,1,2.29,4.34,15,15,0,0,1,.72,4.37Zm-9.54-12.84a3.89,3.89,0,0,0-1-2.93,4,4,0,0,0-2.87-1H222.42a4,4,0,0,0-2.9,1,3.83,3.83,0,0,0-1,2.85V94.1a3.87,3.87,0,0,0,1,2.86,3.94,3.94,0,0,0,2.9,1h17.13a3.84,3.84,0,0,0,2.9-1,3.94,3.94,0,0,0,1-2.86Z"/><path d="M312.3,94.1a14.43,14.43,0,0,1-.63,4.42A12.54,12.54,0,0,1,310,102a11.27,11.27,0,0,1-2.38,2.53,14,14,0,0,1-2.85,1.71,14.68,14.68,0,0,1-3,1,13.88,13.88,0,0,1-2.86.31h-17.2V98h17.2a3.79,3.79,0,0,0,2.86-1,3.94,3.94,0,0,0,1-2.86V81.26a3.92,3.92,0,0,0-1-2.93,3.86,3.86,0,0,0-2.84-1H281.81a4.07,4.07,0,0,0-2.94,1,3.83,3.83,0,0,0-1,2.85v38.7h-9.53V81.19a14.22,14.22,0,0,1,.62-4.4,12.3,12.3,0,0,1,1.67-3.43,11.88,11.88,0,0,1,2.4-2.54,14.25,14.25,0,0,1,5.85-2.67,14.16,14.16,0,0,1,2.85-.31h17.2a14.22,14.22,0,0,1,4.4.62,12.84,12.84,0,0,1,3.43,1.65,11.06,11.06,0,0,1,2.53,2.38A14,14,0,0,1,311,75.34a14.68,14.68,0,0,1,1,3,13.92,13.92,0,0,1,.32,2.86Z"/><path d="M337.64,59.69H328.1V51.07h9.54Zm0,47.8H328.1V67.84h9.54Z"/><path d="M419.59,67.84q-2.28,5.09-4.92,10t-5.52,9.33a100.39,100.39,0,0,1-5.89,8.13,59,59,0,0,1-6,6.42,29.82,29.82,0,0,1-5.76,4.22,11.22,11.22,0,0,1-5.3,1.52,5,5,0,0,1-1.91-.36,5.08,5.08,0,0,1-1.54-1,4.64,4.64,0,0,1-1-1.53,5,5,0,0,1-.36-1.9V84.89l-18.93,21.17a4.82,4.82,0,0,1-1.6,1.08,4.56,4.56,0,0,1-1.78.35,4.73,4.73,0,0,1-1.85-.36,5.11,5.11,0,0,1-1.52-1,4.85,4.85,0,0,1-1.05-1.53,4.61,4.61,0,0,1-.38-1.9V67.84h9.53V90.43l19-21.24a4.59,4.59,0,0,1,2.44-1.3,4.65,4.65,0,0,1,2.77.31,4.59,4.59,0,0,1,2.14,1.74,4.64,4.64,0,0,1,.79,2.63V95.24A54.67,54.67,0,0,0,396.55,89c1.66-2.21,3.21-4.47,4.64-6.81s2.77-4.71,4-7.12,2.49-4.81,3.69-7.2Z"/><path d="M440.09,59.69h-9.54V51.07h9.54Zm0,47.8h-9.54V67.84h9.54Z"/><path d="M500.68,107.49h-9.54v-22a8.36,8.36,0,0,0-.64-3.36,7.91,7.91,0,0,0-1.74-2.55,7.7,7.7,0,0,0-2.59-1.63,8.88,8.88,0,0,0-3.21-.57H466.27v30.12h-9.54V72.57a4.64,4.64,0,0,1,.37-1.86,4.57,4.57,0,0,1,1-1.5,4.83,4.83,0,0,1,3.41-1.37H483a19.1,19.1,0,0,1,3.79.4,18.07,18.07,0,0,1,4,1.3,19.87,19.87,0,0,1,3.74,2.27,15.46,15.46,0,0,1,3.15,3.34,16.43,16.43,0,0,1,2.19,4.53,19.64,19.64,0,0,1,.8,5.8Z"/><path class="cls-1" d="M149.43,76.38h33.49V54.89h9.54v52.6h-9.54V86H149.43v21.5h-9.54V54.89h9.54Z"/><path class="cls-1" d="M253,94.1a14.43,14.43,0,0,1-.63,4.42,12.54,12.54,0,0,1-1.65,3.45,11.27,11.27,0,0,1-2.38,2.53,14,14,0,0,1-2.85,1.71,14.66,14.66,0,0,1-3,1,14.14,14.14,0,0,1-2.88.31h-17.2a15.16,15.16,0,0,1-4.33-.7,12.6,12.6,0,0,1-7.68-6.43A13.26,13.26,0,0,1,209,94.1V81.19A13.15,13.15,0,0,1,210.34,75,12.57,12.57,0,0,1,218,68.53a15.48,15.48,0,0,1,4.33-.69h17.2a13.38,13.38,0,0,1,6.24,1.32,12.43,12.43,0,0,1,4.15,3.32,13.24,13.24,0,0,1,2.29,4.34,15,15,0,0,1,.72,4.37Zm-9.54-12.84a3.89,3.89,0,0,0-1-2.93,4,4,0,0,0-2.87-1H222.42a4,4,0,0,0-2.9,1,3.83,3.83,0,0,0-1,2.85V94.1a3.87,3.87,0,0,0,1,2.86,3.94,3.94,0,0,0,2.9,1h17.13a3.84,3.84,0,0,0,2.9-1,3.94,3.94,0,0,0,1-2.86Z"/><path class="cls-1" d="M312.3,94.1a14.43,14.43,0,0,1-.63,4.42A12.54,12.54,0,0,1,310,102a11.27,11.27,0,0,1-2.38,2.53,14,14,0,0,1-2.85,1.71,14.68,14.68,0,0,1-3,1,13.88,13.88,0,0,1-2.86.31h-17.2V98h17.2a3.79,3.79,0,0,0,2.86-1,3.94,3.94,0,0,0,1-2.86V81.26a3.92,3.92,0,0,0-1-2.93,3.86,3.86,0,0,0-2.84-1H281.81a4.07,4.07,0,0,0-2.94,1,3.83,3.83,0,0,0-1,2.85v38.7h-9.53V81.19a14.22,14.22,0,0,1,.62-4.4,12.3,12.3,0,0,1,1.67-3.43,11.88,11.88,0,0,1,2.4-2.54,14.25,14.25,0,0,1,5.85-2.67,14.16,14.16,0,0,1,2.85-.31h17.2a14.22,14.22,0,0,1,4.4.62,12.84,12.84,0,0,1,3.43,1.65,11.06,11.06,0,0,1,2.53,2.38A14,14,0,0,1,311,75.34a14.68,14.68,0,0,1,1,3,13.92,13.92,0,0,1,.32,2.86Z"/><path class="cls-1" d="M337.64,59.69H328.1V51.07h9.54Zm0,47.8H328.1V67.84h9.54Z"/><path class="cls-1" d="M419.59,67.84q-2.28,5.09-4.92,10t-5.52,9.33a100.39,100.39,0,0,1-5.89,8.13,59,59,0,0,1-6,6.42,29.82,29.82,0,0,1-5.76,4.22,11.22,11.22,0,0,1-5.3,1.52,5,5,0,0,1-1.91-.36,5.08,5.08,0,0,1-1.54-1,4.64,4.64,0,0,1-1-1.53,5,5,0,0,1-.36-1.9V84.89l-18.93,21.17a4.82,4.82,0,0,1-1.6,1.08,4.56,4.56,0,0,1-1.78.35,4.73,4.73,0,0,1-1.85-.36,5.11,5.11,0,0,1-1.52-1,4.85,4.85,0,0,1-1.05-1.53,4.61,4.61,0,0,1-.38-1.9V67.84h9.53V90.43l19-21.24a4.59,4.59,0,0,1,2.44-1.3,4.65,4.65,0,0,1,2.77.31,4.59,4.59,0,0,1,2.14,1.74,4.64,4.64,0,0,1,.79,2.63V95.24A54.67,54.67,0,0,0,396.55,89c1.66-2.21,3.21-4.47,4.64-6.81s2.77-4.71,4-7.12,2.49-4.81,3.69-7.2Z"/><path class="cls-1" d="M440.09,59.69h-9.54V51.07h9.54Zm0,47.8h-9.54V67.84h9.54Z"/><path class="cls-1" d="M500.68,107.49h-9.54v-22a8.36,8.36,0,0,0-.64-3.36,7.91,7.91,0,0,0-1.74-2.55,7.7,7.7,0,0,0-2.59-1.63,8.88,8.88,0,0,0-3.21-.57H466.27v30.12h-9.54V72.57a4.64,4.64,0,0,1,.37-1.86,4.57,4.57,0,0,1,1-1.5,4.83,4.83,0,0,1,3.41-1.37H483a19.1,19.1,0,0,1,3.79.4,18.07,18.07,0,0,1,4,1.3,19.87,19.87,0,0,1,3.74,2.27,15.46,15.46,0,0,1,3.15,3.34,16.43,16.43,0,0,1,2.19,4.53,19.64,19.64,0,0,1,.8,5.8Z"/><path class="cls-2" d="M50.2,13.92c.52-2,1-3.92,1.58-5.87A13.64,13.64,0,0,1,57,.92c1.7-1.27,2.48-1,3,1a21.74,21.74,0,0,0,6,10.36,10.24,10.24,0,0,0,.85.76,3,3,0,0,0,.59.23c.15-.76.3-1.48.44-2.2A15.64,15.64,0,0,1,73.91,1.05,5.59,5.59,0,0,1,74.73.5C76.34-.37,77-.16,77.4,1.6a24.38,24.38,0,0,0,4.92,9.53c.35.43.76.81,1.25,1.32l1.16-1.62a13.37,13.37,0,0,1,7.66-5.35c1.5-.4,2,0,1.93,1.46-.49,7.21,2,13.28,6.86,18.52a41.68,41.68,0,0,1,3.62,4.73,7.32,7.32,0,0,1,1.14,5,3.2,3.2,0,0,0,.17,1.78A15.48,15.48,0,0,1,108,45.66c0,.91,0,1.67,1.1,2,4.86,1.62,8.38,8.21,5.39,14.84a11.28,11.28,0,0,1-11.29,7.13,3.63,3.63,0,0,0-3.3,1.55,16.08,16.08,0,0,1-2.31,2.5c-1,.86-.85,1.34.14,2.19a47.3,47.3,0,0,1,6.65,6.38,35.7,35.7,0,0,1,7.52,24c0,.85-.3,1.22-1.17,1.17s-1.61,0-2.42,0H45.71a5.1,5.1,0,0,1,5-2.72c1.88,0,1.82,0,1.5-1.88-.73-4.44-1.37-8.9-2.11-13.34a2.56,2.56,0,0,0-.83-1.69c-2.31-1.28-4.71-2.41-7.2-3.64-.58,1.33-1.08,2.53-1.6,3.72-3.07,7-8.74,10.77-16.08,11.79C15.59,101,8.23,97.9,3.25,90.4c-4.08-6.14-4.36-12.82-.6-19.24a120.17,120.17,0,0,1,7.54-10.62c.62-.83.92-1.37.11-2.29a5.06,5.06,0,0,1-1-4.81,8.93,8.93,0,0,0,.08-3.38,5,5,0,0,1,2.85-5.79c1.16-.61,1.15-1.08.29-2a15.18,15.18,0,0,1-2.16-2.82,4.94,4.94,0,0,1,4.31-7.75,8.49,8.49,0,0,0,4.08-.84,5.36,5.36,0,0,1,5.18.29,5.38,5.38,0,0,0,2.78.59c2.3-.2,4.16.4,5.4,2.39A4.77,4.77,0,0,1,31.7,40c-.75,1-1.56,1.89-2.37,2.82-.5.57-.55,1,.17,1.48,3.75,2.68,4.18,6,1.28,9.57-.14.18-.25.39-.51.78l8.05,4.88.27-.29c-.28-1.08-.62-2.15-.82-3.25a9.68,9.68,0,0,1,1.48-7.47A5.22,5.22,0,0,0,40.1,46a24,24,0,0,1,4-12.17,2.07,2.07,0,0,0-.22-3C39.27,25.43,37.5,19.21,39,12.17a11.46,11.46,0,0,1,3.06-5.69c1.48-1.51,2.33-1.23,3.26.64S47.62,11,48.78,13c.27.46.5.93.75,1.4ZM44.31,53.15c-.11,8.92,2.41,14.08,6.34,18.58,10.87,12.41,31.67,10.84,40.95-3,6.48-9.68,5-22.29-3.49-29.58a2.88,2.88,0,0,0-2.73-.73q-3.76.82-7.54,1.52c-7.68,1.4-15.29,1.4-22.8-1.06-3-1-3-1-4.89,1.51C46.59,44.94,44.38,50,44.31,53.15ZM19.7,86.41A11.15,11.15,0,0,0,18,85.69a2,2,0,0,0-1.3.08c-1.19.77-1.07,1.84.33,2.43s2.63,1.07,2.82,2.81c0,.28.74.73,1.06.66s1-.56,1.05-.92c.12-1.28,1-1.85,1.89-2.5a4,4,0,0,0,1-.92c2.06-2.94,1.43-6-1.59-7.9-.45-.29-1.13-.69-1.17-1.09-.14-1.47-.05-3-.05-4.68,1.31.73,2.47,1,2.9-.4.39-1.23-1-1.34-1.65-1.92A10.76,10.76,0,0,1,22,69.59c-.31-.41-.68-.78-1-1.16a11.93,11.93,0,0,0-1.15,1.21c-.43.58-.63,1.42-1.18,1.81C15,74,15,77.62,18.73,80.13c.37.25.9.63.92,1C19.75,82.78,19.7,84.46,19.7,86.41Zm82.45-52,.34-.08a29,29,0,0,0-1.95-3.76c-1.29-1.81-2.76-3.49-4.19-5.18a23.18,23.18,0,0,1-5.79-13c0-.5-.11-1-.2-1.81-2,1.65-3.48,3.26-3.79,5.85.26-.2.37-.27.47-.36l1.87-1.51a10,10,0,0,1,1,2.21c1.12,6,4.27,11,8.1,15.57.06.08.24.06.46.1L98.64,30l.47-.18ZM14.2,51.87c-.22.27-.36.45-.52.63-1.76,2.07-1.09,4.34,1.56,4.92a6,6,0,0,0,2.91-.17c2.14-.65,2.57-2.25,1.05-3.87s-2-3.17-.89-5.15a1.26,1.26,0,0,0-.22-1.17c-1-.76-3.64-.44-4.55.44s-.95,2.09.18,3.7ZM70,24a9,9,0,0,0-3.11-4.83c-3.63-2.56-6.09-6.06-8.27-9.82-.51-.88-1-1.75-1.58-2.67-2.29,2.57-3.31,7.72-2.34,10.43.26-1.3.52-2.94.95-4.52.14-.53.65-1.24,1.1-1.33s1.07.48,1.41.92c1.13,1.46,2.17,3,3.25,4.5A23.38,23.38,0,0,0,70,24ZM38.09,83.35h.37c.1-.59.25-1.17.3-1.75a16.28,16.28,0,0,0-3.3-11.35q-4.62-6.42-9.3-12.78a8.57,8.57,0,0,0-1.12-1l-.33.26a6.9,6.9,0,0,0,.52,1.38c2.46,3.88,4.87,7.8,7.46,11.59C35.52,73.84,38.13,78.05,38.09,83.35ZM74.41,6c-2.18,1.75-3.65,7.18-2.52,9.52.91-1.74.61-4.15,3.07-5.25,1.55,2.23,3,4.53,4.69,6.69s3.46,4.14,5.21,6.2l.32-.27C84.5,20.77,84,18.6,82.09,17a15.81,15.81,0,0,1-2.94-3.46C77.5,11.09,76,8.53,74.41,6Zm33.43,98.84.64-.2a7.62,7.62,0,0,0,.1-1.5c-.14-1.26-.36-2.51-.53-3.77a31.72,31.72,0,0,0-7.71-16.5c-.45-.52-.91-1.19-1.74-.42s-.12,1.21.26,1.68a39.22,39.22,0,0,1,5.9,10.64c1,2.6,1.5,5.37,2.26,8.06A19.26,19.26,0,0,0,107.84,104.85ZM4.38,84.12l.26-.05a3.47,3.47,0,0,0,.06-.64,14.66,14.66,0,0,1,2.65-9.82c2.34-3.62,4.74-7.2,7.1-10.8a10.87,10.87,0,0,0,.68-1.42l-.35-.34c-.43.26-1,.43-1.26.8q-4,5.38-7.83,10.82C3.47,75.78,3.38,79.27,4,82.86A9.63,9.63,0,0,0,4.38,84.12Zm38.7-71.76c-1.12,2.42-.95,7.52.38,9.31l.9-5.5c2.43,2.55,4.56,4.79,6.7,7l.48-.26a15.32,15.32,0,0,0-1.75-3.64C47.69,16.88,45.34,14.67,43.08,12.36Zm-16,35.12c-1.66.31-3,.48-4.34.84-1.52.41-1.83,1.65-.95,3,1.63,2.44,5.93,1.59,6.85-.3a3.23,3.23,0,0,0,.13-2.38C28.51,48.05,27.56,47.79,27.06,47.48Zm2.07-10.71c-.16-.23-.4-.91-.78-1a4.6,4.6,0,0,0-2.47,0,2.53,2.53,0,0,1-3.14-.8c-1.11-1.26-2.31-1.37-3.46-.2a2.85,2.85,0,0,1-3.64.79,1.61,1.61,0,0,0-2.35,1.17,27.06,27.06,0,0,1,3.18.85,2.2,2.2,0,0,0,2.89-.65c1.24-1.51,1.79-1.55,3-.07a2.35,2.35,0,0,0,3.23.64A17,17,0,0,1,29.13,36.77Zm48,49.38C74.75,86.08,56.46,98.83,55.8,101ZM43.32,68.62c-.62-2.65-6.27-6.6-9.88-7A45.16,45.16,0,0,0,43.32,68.62ZM95.48,104.7l.29-.53-3.44-5.09-.55.11c-.42,1.57-.87,3.14-1.22,4.73,0,.21.38.74.6.75C92.59,104.74,94,104.7,95.48,104.7Zm16.13-47.16c.55-3-2.16-6.51-4.79-6.62a.85.85,0,0,0-.69.3.81.81,0,0,0,.1.77c.36.35.86.56,1.25.89,1,.84,2,1.67,2.89,2.6A11.44,11.44,0,0,1,111.61,57.54Zm-9.34-18.9c.44,3,.85,5.81,1.28,8.75C105.25,46,104.37,40.24,102.27,38.64ZM44.19,43.75c1.41-2.42,2.82-4.87,4.27-7.3.54-.92-.06-1.14-.78-1.45A20.93,20.93,0,0,0,44.19,43.75Zm10.42,51,.41-.09-1.5-12A30.87,30.87,0,0,0,54.61,94.77Z"/><path class="cls-3" d="M62.34,52.63a8.51,8.51,0,0,1-1.84,6,3.32,3.32,0,0,1-5.4,0c-2.5-2.81-2.52-8.71,0-11.52a3.36,3.36,0,0,1,5.5.08A8.66,8.66,0,0,1,62.34,52.63Zm-4.49-4.89a1.64,1.64,0,0,0-1.73,1.68,1.53,1.53,0,0,0,1.55,1.68,1.54,1.54,0,0,0,1.79-1.57A1.64,1.64,0,0,0,57.85,47.74Z"/><path class="cls-4" d="M73.53,53.05a30,30,0,0,1,1.86-5.28c1.53-2.68,4.48-2.6,6.22,0A10,10,0,0,1,81.67,58c-1.87,2.81-4.79,2.81-6.44-.14A31,31,0,0,1,73.53,53.05Zm3.29-3.71c.05,1.17.47,1.95,1.49,1.9a1.77,1.77,0,0,0,1.85-1.77,1.57,1.57,0,0,0-1.71-1.69A1.54,1.54,0,0,0,76.82,49.34Z"/><path class="cls-5" d="M70,65.87c-1.51.1-3,.23-4.55.31a4.31,4.31,0,0,1-4-2.24A1.67,1.67,0,0,1,62,61.57c.92-.56,1.52,0,2,.76.57.94,1.26,1,2.3.75a6.47,6.47,0,0,1,3,0c1,.26,1.73.22,2.29-.73s1.12-1.35,2.09-.72.75,1.45.35,2.27A3.68,3.68,0,0,1,70,65.87Z"/><path class="cls-6" d="M22.07,86c-.07-1.4-.14-2.62-.21-3.91C23.63,82.83,23.79,84.68,22.07,86Z"/><path class="cls-7" d="M19.63,77.34c-1.23-1.58-1.21-2.27,0-3.54Z"/></g></g></svg>